<?xml version="1.0" encoding="UTF-8" standalone="no"?>
<!-- Created with Inkscape (http://www.inkscape.org/) -->

<svg
   width="210mm"
   height="297mm"
   viewBox="0 0 210 297"
   version="1.1"
   id="svg1"
   inkscape:version="1.4 (86a8ad7, 2024-10-11)"
   sodipodi:docname="AssassinCharacter01.svg"
   xmlns:inkscape="http://www.inkscape.org/namespaces/inkscape"
   xmlns:sodipodi="http://sodipodi.sourceforge.net/DTD/sodipodi-0.dtd"
   xmlns="http://www.w3.org/2000/svg"
   xmlns:svg="http://www.w3.org/2000/svg">
  <sodipodi:namedview
     id="namedview1"
     pagecolor="#505050"
     bordercolor="#eeeeee"
     borderopacity="1"
     inkscape:showpageshadow="0"
     inkscape:pageopacity="0"
     inkscape:pagecheckerboard="0"
     inkscape:deskcolor="#505050"
     inkscape:document-units="mm"
     inkscape:zoom="2.0000001"
     inkscape:cx="374.24999"
     inkscape:cy="316.24999"
     inkscape:window-width="1920"
     inkscape:window-height="986"
     inkscape:window-x="-11"
     inkscape:window-y="-11"
     inkscape:window-maximized="1"
     inkscape:current-layer="layer2" />
  <defs
     id="defs1">
    <rect
       x="246.89869"
       y="118.92867"
       width="18.77821"
       height="47.293271"
       id="rect21" />
  </defs>
  <g
     inkscape:groupmode="layer"
     id="layer3"
     inkscape:label="Legs"
     style="fill:#ffe6d5">
    <path
       style="fill:#000000;fill-opacity:1;stroke-width:0.339664"
       d="m 103.65698,81.9357 3.80718,14.267923 0.64018,12.140897 2.46055,1.61306 4.24049,2.18408 2.90781,-3.18526 -4.78655,-2.56944 0.72393,-10.228628 -0.0134,-13.919879"
       id="path28-9"
       sodipodi:nodetypes="ccccccccc"
       inkscape:label="Leg Background" />
    <path
       style="fill:#1a1a1a;fill-opacity:1;stroke-width:0.330636"
       d="m 98.625862,82.269527 0.865438,15.175776 1.14404,11.330617 0.02,4.67312 8.02853,1.87509 3.39409,-3.13704 -6.75598,-3.08105 0.62515,-11.956656 1.69381,-13.30353"
       id="path28"
       sodipodi:nodetypes="ccccccccc"
       inkscape:label="Leg Foreground" />
  </g>
  <g
     inkscape:groupmode="layer"
     id="layer2"
     inkscape:label="Body"
     style="fill:#ffe6d5"
     transform="matrix(0.87006763,0,0,0.87857142,13.754493,6.8786034)">
    <path
       style="fill:#ffb380;fill-opacity:1;stroke-width:0.256852"
       d="m 103.79405,60.036243 -2.37037,5.696214 1.21442,5.524693 8.61878,-0.444306 2.32543,-4.020441 -1.24808,-6.198595"
       id="path25"
       inkscape:label="Neck"
       sodipodi:nodetypes="cccccc" />
    <g
       inkscape:groupmode="layer"
       id="layer11"
       inkscape:label="Arm Background"
       style="fill:#ffe6d5">
      <path
         style="fill:#000000;fill-opacity:1;stroke-width:0.383673"
         d="m 120.30883,66.07562 -0.59369,12.425622 3.5511,13.518164 -5.04306,0.649602 -4.86428,-13.496603 -0.69067,-15.321345 2.11287,-0.729638 3.12672,0.677792"
         id="path27-7-5"
         sodipodi:nodetypes="cccccccc"
         inkscape:label="Arm Background" />
      <path
         style="fill:#ffb380;stroke-width:0.285008"
         d="m 119.00667,90.375666 3.80065,-0.191754 1.03081,3.531786 -2.30821,1.532004 -3.53926,-1.659672"
         id="path1-8"
         inkscape:label="Hand Background"
         sodipodi:nodetypes="ccccc" />
    </g>
    <path
       style="fill:#1a1a1a;fill-opacity:1;stroke-width:0.264583"
       d="m 112.7106,62.619684 3.2788,1.115137 1.25617,3.708593 -0.78953,5.944723 -1.65016,9.975312 -0.066,3.145211 -6.64664,0.958716 -8.4788,-0.326218 -2.193906,1.805745 -2.301536,-16.214013 0.54096,-8.680293 3.937275,-1.830613 1.954517,0.05888 6.3065,1.214987 z"
       id="path26"
       sodipodi:nodetypes="ccccccccccccccc"
       inkscape:label="Torso" />
    <path
       style="display:inline;fill:#ff0000;stroke-width:0.264583"
       d="m 114.91686,62.844767 -3.90438,7.853997 -4.85904,12.487682 -0.8693,-0.102056 4.55197,-12.540614 -9.64142,-8.970855 1.58057,-0.05147 8.69395,8.051058 3.75977,-6.776861"
       id="path10"
       sodipodi:nodetypes="ccccccccc"
       transform="matrix(1.149336,0,0,1.1382114,-15.808533,-7.8293048)"
       inkscape:label="Body Decoration" />
    <path
       style="fill:#000000;stroke-width:0.302619"
       d="m 114.72472,85.093672 -4.80427,1.701516 -7.23501,-0.438496 -4.934582,-1.431834 -0.261712,1.147789 5.128574,1.56274 7.60669,0.393259 4.57822,-1.459247"
       id="path13"
       sodipodi:nodetypes="cccccccc"
       inkscape:label="Belt" />
    <path
       style="fill:#000000;stroke-width:0.378697"
       d="m 97.779866,86.276999 -3.437083,2.868573 -0.728502,2.10845 -1.822117,1.319357 0.540533,-2.013248 0.821258,-2.140662 4.000988,-2.658815"
       id="path5"
       inkscape:label="Belt Tie Lower"
       sodipodi:nodetypes="ccccccc" />
    <path
       style="fill:#000000;stroke-width:0.355433"
       d="m 97.595881,85.507788 -2.083647,0.242524 -1.861549,1.3945 -1.269896,-0.112931 0.531823,-1.16031 2.208937,-0.666937 2.604562,-0.242523"
       id="path6"
       inkscape:label="Belt Tie Upper"
       sodipodi:nodetypes="ccccccc" />
    <g
       inkscape:groupmode="layer"
       id="layer10"
       inkscape:label="Arm Foreground"
       transform="matrix(1.149336,0,0,1.1382114,-15.808533,-7.8293048)"
       style="display:inline">
      <path
         style="fill:#333333;fill-opacity:1;stroke-width:0.455704"
         d="m 101.9521,65.666316 -1.32195,15.936052 2.35217,12.056759 -5.058109,-0.526211 -3.327873,-9.954237 -1.059049,-15.286519 2.020374,-4.455939 3.23717,-0.429153"
         id="path27-7"
         sodipodi:nodetypes="cccccccc"
         inkscape:label="Arm Foreground"
         transform="matrix(0.87006759,0,0,0.87857142,13.754492,6.8786034)" />
      <path
         style="fill:#ffccaa;stroke-width:0.406776"
         d="m 98.494117,91.763549 4.093603,0.07192 1.34597,4.891425 -3.36487,1.400229 -3.663963,-2.171033"
         id="path1"
         inkscape:label="Hand Foreground"
         sodipodi:nodetypes="ccccc"
         transform="matrix(0.87006759,0,0,0.87857142,13.754492,6.8786034)" />
    </g>
  </g>
  <g
     inkscape:label="Head"
     inkscape:groupmode="layer"
     id="layer1"
     style="display:inline;fill:#ffe6d5">
    <path
       style="fill:#000000;stroke-width:0.30234"
       d="m 102.3375,50.607483 -1.95437,-1.777341 -2.442958,-0.280634 -0.122142,0.748355 2.68724,0.65481 0.97719,1.028988"
       id="path8"
       inkscape:label="Headband Tie Upper" />
    <path
       style="fill:#000000;stroke-width:0.351814"
       d="m 99.982988,51.57115 -2.456405,-0.214148 -0.722469,1.606113 h 2.167425 l 3.178871,-0.749519 -0.28899,-1.606112"
       id="path9"
       inkscape:label="Headband Tie Lower" />
    <path
       style="fill:#ffccaa;fill-opacity:1;stroke-width:0.237932"
       d="m 104.80127,52.097134 9.54978,-4.599274 3.2075,4.983253 -1.51702,7.433541 -1.92118,2.51893 -8.25225,-0.486389 -2.21724,-2.562577 -0.79405,-2.648606 z"
       id="path22"
       inkscape:label="Face"
       sodipodi:nodetypes="ccccccccc" />
    <g
       inkscape:groupmode="layer"
       id="layer8"
       inkscape:label="Hair"
       style="display:none">
      <path
         style="display:inline;fill:#483e37;fill-opacity:1;stroke-width:0.301959"
         d="m 98.107859,48.84739 0.142644,2.243849 -0.06336,1.12921 3.310797,0.842286 2.62442,-0.428835 2.5267,0.486174 3.12935,-0.137979 2.54185,0.183359 2.54404,-0.468227 1.90059,0.263329 2.21002,-0.160372 0.19438,-2.497375 -0.74556,-2.822487 -1.46288,-2.185451 -1.70602,-1.001139 -2.06685,-1.040833 -2.82951,-0.388437 -2.55035,0.02658 -2.81398,-0.449144 -4.06862,0.916646 -1.499486,2.154286"
         id="path24"
         inkscape:label="Hair"
         sodipodi:nodetypes="ccccccccccccccccccccc" />
      <path
         style="display:inline;fill:#241f1c;stroke-width:0.257033"
         d="m 99.736952,51.052155 -1.675334,1.024435 0.849301,1.084798 2.559371,0.08122 2.6076,1.694219 2.43096,-1.316838 2.55586,0.880035 3.50587,-0.193787 2.01343,0.646113 1.88724,-0.764958 1.88725,1.969771 0.63333,-3.52602 -1.86952,0.185453 -2.12704,-0.744704 -2.7332,0.334758 -2.76207,-1.102379 -2.98533,0.799388 -2.75973,-0.671451 -2.07144,0.99888"
         id="path2"
         sodipodi:nodetypes="ccccccccccccccccccc"
         inkscape:label="Hair Shadow" />
    </g>
    <g
       inkscape:groupmode="layer"
       id="layer9"
       inkscape:label="Eyes">
      <path
         style="display:inline;fill:#2b1100;stroke-width:0.425304"
         d="m 109.62218,56.399251 1.37808,-0.642838 0.89137,0.838714 0.22275,1.204502 -1.13217,0.718594 -1.39741,-0.75512"
         id="path14"
         sodipodi:nodetypes="cccccc"
         inkscape:label="Eye Front" />
      <path
         style="display:inline;fill:#2b1100;stroke-width:0.34643"
         d="m 116.1354,56.152801 -0.91236,-0.353676 -0.62647,0.708891 -0.17037,0.984312 0.81311,0.541445 0.88838,-0.53837"
         id="path14-1"
         sodipodi:nodetypes="cccccc"
         inkscape:label="Eye Back" />
    </g>
    <path
       style="fill:#1a1a1a;stroke-width:0.264583"
       d="m 116.35052,55.099478 -4.92787,-0.198437 -3.34036,2.05052 0.009,2.041119 2.40492,0.703933 3.30729,-0.463021 0.69449,3.472656 -6.47923,0.351984 -6.72654,-1.215892 0.24119,-2.575675 -0.7276,-3.174999 -0.33073,-3.704167 2.57969,-5.820834 5.75468,-2.116666 5.6224,2.315103 2.38125,2.976563 1.5875,3.50573 -2.34182,7.09481 -1.64977,2.43433 -0.64284,-3.505444 1.73262,0.203887 0.74543,-1.599844"
       id="path4"
       sodipodi:nodetypes="cccccccccccccccccccccc"
       inkscape:label="Head Cover" />
    <path
       style="fill:#000000;stroke-width:0.30262"
       d="m 105.57462,52.700721 7.63348,0.905023 4.19305,-0.425891 2.42577,-1.364188 0.45022,0.991532 -2.55346,1.863281 -7.14967,0 -5.91326,-0.798549 -4.980668,-2.085916 0.565798,-1.177387 z"
       id="path7"
       transform="matrix(0.87006763,0,0,0.87857142,13.754493,6.8786034)"
       sodipodi:nodetypes="ccccccccccc"
       inkscape:label="Headband" />
  </g>
</svg>
