<?xml version="1.0" encoding="UTF-8" standalone="no"?>
<!-- Created with Inkscape (http://www.inkscape.org/) -->

<svg
   width="100"
   height="100"
   viewBox="0 0 26.458333 26.458333"
   version="1.1"
   id="svg1"
   inkscape:version="1.4.2 (f4327f4, 2025-05-13)"
   sodipodi:docname="BoostIntelligenceIcon.svg"
   xml:space="preserve"
   inkscape:export-filename="PNG\Activated\BoostIntelligenceIcon.png"
   inkscape:export-xdpi="96"
   inkscape:export-ydpi="96"
   xmlns:inkscape="http://www.inkscape.org/namespaces/inkscape"
   xmlns:sodipodi="http://sodipodi.sourceforge.net/DTD/sodipodi-0.dtd"
   xmlns="http://www.w3.org/2000/svg"
   xmlns:svg="http://www.w3.org/2000/svg"><sodipodi:namedview
     id="namedview1"
     pagecolor="#ffffff"
     bordercolor="#000000"
     borderopacity="0.25"
     inkscape:showpageshadow="2"
     inkscape:pageopacity="0.0"
     inkscape:pagecheckerboard="0"
     inkscape:deskcolor="#d1d1d1"
     inkscape:document-units="mm"
     inkscape:zoom="5.5090348"
     inkscape:cx="29.67852"
     inkscape:cy="40.93276"
     inkscape:window-width="1920"
     inkscape:window-height="1017"
     inkscape:window-x="-8"
     inkscape:window-y="-8"
     inkscape:window-maximized="1"
     inkscape:current-layer="g16" /><defs
     id="defs1" /><g
     inkscape:label="Deactivated"
     inkscape:groupmode="layer"
     id="g16"
     style="display:none"><circle
       style="opacity:0.111;fill:#413b9c;fill-opacity:1;stroke-width:0.279754;paint-order:stroke fill markers"
       id="circle3"
       cx="13.080598"
       cy="13.295566"
       r="13.20747" /><path
       id="rect3"
       style="opacity:0.5;fill:#041115;fill-opacity:1;stroke-width:0.264999;paint-order:stroke fill markers"
       d="m 20.063375,2.960026 -0.96945,1.3926799 -0.96945,1.3931966 0.732255,-0.00465 v 1.7766358 h 2.431893 V 5.7267822 l 0.763778,-0.00465 -0.994255,-1.3807942 z m -1.18339,5.4932048 v 1.1694377 h 2.408638 V 8.4532308 Z m -0.07028,1.9647382 v 0.677995 h 2.455664 v -0.677995 z" /><path
       id="path10"
       style="opacity:0.5;fill:#000000;fill-opacity:1;stroke-width:0.264999;paint-order:stroke fill markers"
       inkscape:transform-center-x="-1.461317"
       inkscape:transform-center-y="-0.018786032"
       d="m -0.00442665,14.457504 0.02169436,-6.5e-4 2.64649539,4.329631 2.6693507,4.36772 0.3239043,-0.594947 3.6131442,-0.108285 1.0285107,0.57613 1.534332,0.85876 -0.02322,-1.758125 -0.02227,-1.691979 0.05629,-0.0022 -0.0033,-0.0056 1.785136,-0.0535 -0.377656,-12.601325 -2.011377,0.06028 0.01313,-0.027794 -1.8932668,0.068114 -1.8932517,0.068631 1.0188622,1.7722314 0.9212015,1.6014476 0.1826149,0.331609 0.8453099,1.535995 0.06752,2.253114 -0.5500018,1.158529 -0.1415182,0.297895 -0.00219,-0.0041 -0.8738886,1.840331 -0.8743895,1.840862 1.8937682,-0.06865 1.7181939,-0.06183 -1.392755,0.829126 -1.0605786,0.630984 -3.2526046,0.09748 1.8179892,-3.338962 2.418264,-4.441611 0.03099,-9.28e-4 -0.0163,-0.0264 0.01471,-0.02681 -0.03048,9.13e-4 L 7.5667856,9.8449183 4.9035249,5.4733966 2.4495569,9.9657087 0.0166387,14.418615 l -0.02221089,6.66e-4 0.01141995,0.01879 z M 10.292241,9.8226922 l 0.03598,-0.076043 0.0022,0.074897 z"
       transform="rotate(91.716616,9.5056355,17.018284)" /></g><g
     inkscape:label="Activated"
     inkscape:groupmode="layer"
     id="g18"
     style="display:inline"><circle
       style="opacity:0.111;fill:#413b9c;fill-opacity:1;stroke-width:0.279754;paint-order:stroke fill markers"
       id="circle17"
       cx="13.080598"
       cy="13.295566"
       r="13.20747" /><path
       id="path17"
       style="opacity:1;fill:#041115;fill-opacity:1;stroke-width:0.264999;paint-order:stroke fill markers"
       d="m 20.063375,2.960026 -0.96945,1.3926799 -0.96945,1.3931966 0.732255,-0.00465 v 1.7766358 h 2.431893 V 5.7267822 l 0.763778,-0.00465 -0.994255,-1.3807942 z m -1.18339,5.4932048 v 1.1694377 h 2.408638 V 8.4532308 Z m -0.07028,1.9647382 v 0.677995 h 2.455664 v -0.677995 z" /><path
       id="path18"
       style="opacity:1;fill:#000000;fill-opacity:1;stroke-width:0.264999;paint-order:stroke fill markers"
       inkscape:transform-center-x="-1.461317"
       inkscape:transform-center-y="-0.018786032"
       d="m -0.00442665,14.457504 0.02169436,-6.5e-4 2.64649539,4.329631 2.6693507,4.36772 0.3239043,-0.594947 3.6131442,-0.108285 1.0285107,0.57613 1.534332,0.85876 -0.02322,-1.758125 -0.02227,-1.691979 0.05629,-0.0022 -0.0033,-0.0056 1.785136,-0.0535 -0.377656,-12.601325 -2.011377,0.06028 0.01313,-0.027794 -1.8932668,0.068114 -1.8932517,0.068631 1.0188622,1.7722314 0.9212015,1.6014476 0.1826149,0.331609 0.8453099,1.535995 0.06752,2.253114 -0.5500018,1.158529 -0.1415182,0.297895 -0.00219,-0.0041 -0.8738886,1.840331 -0.8743895,1.840862 1.8937682,-0.06865 1.7181939,-0.06183 -1.392755,0.829126 -1.0605786,0.630984 -3.2526046,0.09748 1.8179892,-3.338962 2.418264,-4.441611 0.03099,-9.28e-4 -0.0163,-0.0264 0.01471,-0.02681 -0.03048,9.13e-4 L 7.5667856,9.8449183 4.9035249,5.4733966 2.4495569,9.9657087 0.0166387,14.418615 l -0.02221089,6.66e-4 0.01141995,0.01879 z M 10.292241,9.8226922 l 0.03598,-0.076043 0.0022,0.074897 z"
       transform="rotate(91.716616,9.5056355,17.018284)" /></g></svg>
