<?xml version="1.0" encoding="UTF-8" standalone="no"?>
<!-- Created with Inkscape (http://www.inkscape.org/) -->

<svg
   width="100"
   height="100"
   viewBox="0 0 26.458333 26.458333"
   version="1.1"
   id="svg1"
   inkscape:version="1.4.2 (f4327f4, 2025-05-13)"
   sodipodi:docname="BoostStrengthIcon.svg"
   xml:space="preserve"
   inkscape:export-filename="PNG\Activated\BoostStrengthIcon.png"
   inkscape:export-xdpi="96"
   inkscape:export-ydpi="96"
   xmlns:inkscape="http://www.inkscape.org/namespaces/inkscape"
   xmlns:sodipodi="http://sodipodi.sourceforge.net/DTD/sodipodi-0.dtd"
   xmlns="http://www.w3.org/2000/svg"
   xmlns:svg="http://www.w3.org/2000/svg"><sodipodi:namedview
     id="namedview1"
     pagecolor="#ffffff"
     bordercolor="#000000"
     borderopacity="0.25"
     inkscape:showpageshadow="2"
     inkscape:pageopacity="0.0"
     inkscape:pagecheckerboard="0"
     inkscape:deskcolor="#d1d1d1"
     inkscape:document-units="mm"
     inkscape:zoom="5.6568543"
     inkscape:cx="16.175067"
     inkscape:cy="49.939416"
     inkscape:window-width="1920"
     inkscape:window-height="1017"
     inkscape:window-x="-8"
     inkscape:window-y="-8"
     inkscape:window-maximized="1"
     inkscape:current-layer="layer1"
     showguides="false" /><defs
     id="defs1" /><g
     inkscape:label="Activated"
     inkscape:groupmode="layer"
     id="layer1"
     style="display:none"><circle
       style="opacity:0.110803;fill:#423b99;fill-opacity:1;stroke-width:0.279754;paint-order:stroke fill markers"
       id="path1"
       cx="13.138669"
       cy="13.214786"
       r="13.20747" /><path
       style="opacity:1;fill:#000000;fill-opacity:1;stroke-width:0.264999;paint-order:stroke fill markers"
       d="M 9.921374,3.4117326 9.687513,3.2948021 9.40688,3.2597231 9.149633,3.2948021 9.067783,3.3415741 8.255116,3.8736075 6.507007,5.072144 6.109443,5.329391 5.793731,5.6801822 5.665108,5.8204987 5.583258,6.0075874 5.419556,6.4285368 2.2917209,17.347918 l -0.08268,0.42168 v 0.173633 0.190169 l 0.03307,0.173633 0.190169,0.330729 c 0,0 0.124024,0.23151 0.173633,0.239779 0.04961,0.0083 0.256315,0.214974 0.256315,0.214974 l 0.181901,0.09095 0.3555341,0.115755 0.314193,0.107487 0.272851,0.04961 0.173633,0.115755 0.248047,0.206706 0.165365,0.124023 c 0,0 0.23151,0.124023 0.28112,0.148828 0.04961,0.02481 0.777213,0.413412 0.777213,0.413412 l 0.983919,0.388606 0.98392,0.396875 0.766278,0.267884 1.672105,0.438489 1.502554,0.251401 1.180998,0.0877 0.376436,0.01286 h 0.545703 l 0.744141,-0.02481 0.380338,-0.06615 0.305925,0.0083 h 0.380338 l 0.28112,0.06614 0.355534,0.115756 0.355534,0.107487 0.51263,0.115755 0.636653,0.115755 0.835091,0.09922 0.868164,0.08268 1.099675,0.04134 0.826823,-0.01654 0.198437,-0.04961 0.14056,-0.08268 0.115755,-0.132292 0.107487,-0.157096 0.05788,-0.148828 0.04961,-0.23151 0.0083,-0.223243 0.03307,-7.912695 -0.107487,-0.190169 -0.04134,-0.115755 -0.16123,-0.161231 -0.208773,-0.169498 -0.132292,-0.136426 -0.1757,-0.132292 -0.227376,-0.136425 -0.353466,-0.173632 -0.3514,-0.130225 -0.26665,-0.08682 -0.26045,-0.04547 -0.219108,-0.04341 -0.44235,-0.04547 -0.721403,0.0021 -0.504362,0.09095 -0.434082,0.08682 -0.396875,0.130225 -0.535368,0.223242 -0.839897,0.479607 -0.53788,0.391717 -0.233861,0.204629 -0.491107,0.391716 -0.13447,0.07016 -0.181243,0.05846 -0.163702,-0.01754 -0.05262,-0.04677 -0.11693,-0.07016 -0.146163,-0.0877 -0.239708,-0.09939 -0.350791,-0.09354 -0.266017,-0.08185 -0.236784,-0.04677 -0.391717,-0.0497 -1.178074,0.0058 -0.216321,0.02046 -0.225091,0.04385 -0.274785,0.08185 -0.219245,0.105237 -0.13447,0.14324 -0.05554,0.216321 -0.04969,0.347868 -0.03216,0.236784 -0.08185,0.374177 -0.07893,0.251401 -0.07016,0.149086 -0.293371,0.50193 -0.219108,0.248047 -0.318327,0.23151 -0.198438,0.0083 -0.107486,-0.0041 -0.05374,-0.05788 -0.05788,-0.05788 -0.08682,-0.115755 v -0.132292 l 0.03307,-0.144694 0.107487,-0.103353 0.09922,-0.08268 0.107487,-0.09508 0.08268,-0.115756 0.07855,-0.119889 0.07028,-0.132292 0.152962,-0.376204 0.07441,-0.243913 0.04961,-0.181901 0.06201,-0.248047 0.0248,-0.243913 -0.0041,-0.628385 v -0.322532 l -0.02897,-0.07855 -0.03307,-0.268717 -0.0248,-0.239779 -0.04134,-0.297656 0.0083,-0.115756 -0.03307,-0.363802 -0.02481,-0.206705 -0.03721,-0.256315 -0.02481,-0.504362 -0.0248,-0.372072 L 8.687251,10.477017 8.662451,9.9850583 8.641781,9.7824863 8.579771,9.6584623 8.501221,9.5385733 8.397805,9.4062855 8.253111,9.2698595 8.091881,9.071422 7.988528,8.930862 7.934788,8.810973 7.938888,8.633206 v -0.09508 l 0.04961,-0.04134 0.05788,-0.07028 0.09922,-0.04961 0.140559,-0.01654 0.194304,0.01654 0.05374,0.07441 0.09508,0.09508 0.124023,0.186035 0.103353,0.136426 0.09509,0.09509 0.111621,0.09095 0.09509,0.09095 0.132292,0.08682 0.103353,0.02067 0.06615,0.0083 h 0.219106 l 0.05374,-0.02067 0.1984377,-0.07855 0.2232423,-0.152962 0.25218,-0.227376 0.28112,-0.297657 0.343132,-0.3927405 0.37207,-0.396875 0.438216,-0.4671549 0.268717,-0.3141928 0.128158,-0.2067057 0.04547,-0.1405599 L 12.321052,6.413187 12.304543,6.1568717 12.267336,5.9915071 12.135044,5.7103873 11.961411,5.4706087 11.614146,5.0985384 11.039504,4.4990918 10.593019,4.0278027 10.3119,3.7260123 10.134134,3.5234407 Z"
       id="path2" /><path
       style="opacity:1;fill:#041115;fill-opacity:1;stroke-width:0.264999;paint-order:stroke fill markers"
       d="m 12.347852,15.855764 -0.748354,2.104747 1.870886,1.356393 -1.403165,-1.403165 z"
       id="path3" /><path
       style="opacity:1;fill:#041115;fill-opacity:1;stroke-width:0.264999;paint-order:stroke fill markers"
       d="m 18.381462,15.621903 0.561266,1.496709 0.982215,0.701583 0.374177,1.216076 -0.280633,-1.403165 -0.841899,-0.514494 z"
       id="path4" /><path
       style="opacity:1;fill:#041115;fill-opacity:1;stroke-width:0.264999;paint-order:stroke fill markers"
       d="m 15.154182,21.515197 1.028988,-1.169304 -0.654811,-1.356393 0.514494,-1.917659 -0.561266,1.590254 -0.187089,0.701582 0.561267,1.07576 z"
       id="path5" /><rect
       style="opacity:1;fill:#041115;fill-opacity:1;stroke-width:0.264999;paint-order:stroke fill markers"
       id="rect5"
       width="2.4321527"
       height="1.8241144"
       x="19.316904"
       y="5.7295904" /><rect
       style="opacity:1;fill:#041115;fill-opacity:1;stroke-width:0.264999;paint-order:stroke fill markers"
       id="rect6"
       width="2.4087667"
       height="1.1693041"
       x="19.34029"
       y="8.4891481" /><rect
       style="opacity:1;fill:#041115;fill-opacity:1;stroke-width:0.272911;paint-order:stroke fill markers"
       id="rect7"
       width="2.4555387"
       height="0.67819637"
       x="19.270132"
       y="10.453579" /><path
       sodipodi:type="star"
       style="opacity:1;fill:#041115;fill-opacity:1;stroke-width:0.264999;paint-order:stroke fill markers"
       id="path7"
       inkscape:flatsided="false"
       sodipodi:sides="3"
       sodipodi:cx="13.938106"
       sodipodi:cy="4.2094951"
       sodipodi:r1="1.8492759"
       sodipodi:r2="0.92463797"
       sodipodi:arg1="0.5599398"
       sodipodi:arg2="1.6071374"
       inkscape:rounded="0"
       inkscape:randomized="0"
       d="m 15.504973,5.1917106 -1.600462,-0.058188 -1.600463,-0.058188 0.850624,-1.3569472 0.850623,-1.3569472 0.749839,1.4151353 z"
       inkscape:transform-center-x="0.095649446"
       inkscape:transform-center-y="0.019662561"
       transform="matrix(1.2251756,-0.04363599,0.05351272,0.9990475,3.2385649,1.2477887)" /></g><g
     inkscape:label="Deactivated"
     inkscape:groupmode="layer"
     id="layer1-8"
     transform="translate(-8.9270324,-0.00731564)"
     style="display:inline"><circle
       style="opacity:0.110803;fill:#423b99;fill-opacity:1;stroke-width:0.279754;paint-order:stroke fill markers"
       id="path1-2"
       cx="22.212469"
       cy="13.214786"
       r="13.20747" /><path
       style="opacity:0.5;fill:#030303;fill-opacity:1;stroke-width:0.264999;paint-order:stroke fill markers"
       d="m 18.995174,3.4117326 -0.233861,-0.1169305 -0.280633,-0.035079 -0.257247,0.035079 -0.08185,0.046772 -0.812667,0.5320334 -1.748109,1.1985365 -0.397564,0.257247 -0.315712,0.3507912 -0.128623,0.1403165 -0.08185,0.1870887 -0.163702,0.4209494 -3.127835,10.9193812 -0.08268,0.42168 v 0.173633 0.190169 l 0.03307,0.173633 0.190169,0.330729 c 0,0 0.124024,0.23151 0.173633,0.239779 0.04961,0.0083 0.256315,0.214974 0.256315,0.214974 l 0.181901,0.09095 0.355534,0.115755 0.314193,0.107487 0.272851,0.04961 0.173633,0.115755 0.248047,0.206706 0.165365,0.124023 c 0,0 0.23151,0.124023 0.28112,0.148828 0.04961,0.02481 0.777213,0.413412 0.777213,0.413412 l 0.983919,0.388606 0.98392,0.396875 0.766278,0.267884 1.672105,0.438489 1.502554,0.251401 1.180998,0.0877 0.376436,0.01286 h 0.545703 l 0.744141,-0.02481 0.380338,-0.06615 0.305925,0.0083 h 0.380338 l 0.28112,0.06614 0.355534,0.115756 0.355534,0.107487 0.51263,0.115755 0.636653,0.115755 0.835091,0.09922 0.868164,0.08268 1.099675,0.04134 0.826823,-0.01654 0.198437,-0.04961 0.14056,-0.08268 0.115755,-0.132292 0.107487,-0.157096 0.05788,-0.148828 0.04961,-0.23151 0.0083,-0.223243 0.03307,-7.912695 -0.107487,-0.190169 -0.04134,-0.115755 -0.16123,-0.161231 -0.208773,-0.169498 -0.132292,-0.136426 -0.1757,-0.132292 -0.227376,-0.136425 -0.353466,-0.173632 -0.3514,-0.130225 -0.26665,-0.08682 -0.26045,-0.04547 -0.219108,-0.04341 -0.44235,-0.04547 -0.721403,0.0021 -0.504362,0.09095 -0.434082,0.08682 -0.396875,0.130225 -0.535368,0.223242 -0.839897,0.479607 -0.53788,0.391717 -0.233861,0.204629 -0.491107,0.391716 -0.13447,0.07016 -0.181243,0.05846 -0.163702,-0.01754 -0.05262,-0.04677 -0.11693,-0.07016 -0.146163,-0.0877 -0.239708,-0.09939 -0.350791,-0.09354 -0.266017,-0.08185 -0.236784,-0.04677 -0.391717,-0.0497 -1.178074,0.0058 -0.216321,0.02046 -0.225091,0.04385 -0.274785,0.08185 -0.219245,0.105237 -0.13447,0.14324 -0.05554,0.216321 -0.04969,0.347868 -0.03216,0.236784 -0.08185,0.374177 -0.07893,0.251401 -0.07016,0.149086 -0.293371,0.50193 -0.219108,0.248047 -0.318327,0.23151 -0.198438,0.0083 -0.107486,-0.0041 -0.05374,-0.05788 -0.05788,-0.05788 -0.08682,-0.115755 v -0.132292 l 0.03307,-0.144694 0.107487,-0.103353 0.09922,-0.08268 0.107487,-0.09508 0.08268,-0.115756 0.07855,-0.119889 0.07028,-0.132292 0.152962,-0.376204 0.07441,-0.243913 0.04961,-0.181901 0.06201,-0.248047 0.0248,-0.243913 -0.0041,-0.628385 v -0.322532 l -0.02897,-0.07855 -0.03307,-0.268717 -0.0248,-0.239779 -0.04134,-0.297656 0.0083,-0.115756 -0.03307,-0.363802 -0.02481,-0.206705 -0.03721,-0.256315 -0.02481,-0.504362 -0.0248,-0.372072 -0.04961,-0.363802 -0.0248,-0.4919587 -0.02067,-0.202572 -0.06201,-0.124024 -0.07855,-0.119889 -0.103416,-0.1322878 -0.144694,-0.136426 -0.16123,-0.1984375 -0.103353,-0.14056 -0.05374,-0.119889 0.0041,-0.177767 v -0.09508 l 0.04961,-0.04134 0.05788,-0.07028 0.09922,-0.04961 0.140559,-0.01654 0.194304,0.01654 0.05374,0.07441 0.09508,0.09508 0.124023,0.186035 0.103353,0.136426 0.09509,0.09509 0.111621,0.09095 0.09509,0.09095 0.132292,0.08682 0.103353,0.02067 0.06615,0.0083 h 0.219106 l 0.05374,-0.02067 0.198438,-0.07855 0.223242,-0.152962 0.25218,-0.227376 0.28112,-0.297657 0.343132,-0.3927405 0.37207,-0.396875 0.438216,-0.4671549 0.268717,-0.3141928 0.128158,-0.2067057 0.04547,-0.1405599 L 21.394852,6.413187 21.378343,6.1568717 21.341136,5.9915071 21.208844,5.7103873 21.035211,5.4706087 20.687946,5.0985384 20.113304,4.4990918 19.666819,4.0278027 19.3857,3.7260123 19.207934,3.5234407 Z"
       id="path2-4" /><path
       style="opacity:0.5;fill:#041115;fill-opacity:1;stroke-width:0.264999;paint-order:stroke fill markers"
       d="m 21.421652,15.855764 -0.748354,2.104747 1.870886,1.356393 -1.403165,-1.403165 z"
       id="path3-5" /><path
       style="opacity:0.5;fill:#041115;fill-opacity:1;stroke-width:0.264999;paint-order:stroke fill markers"
       d="m 27.455262,15.621903 0.561266,1.496709 0.982215,0.701583 0.374177,1.216076 -0.280633,-1.403165 -0.841899,-0.514494 z"
       id="path4-5" /><path
       style="opacity:0.5;fill:#041115;fill-opacity:1;stroke-width:0.264999;paint-order:stroke fill markers"
       d="m 24.227982,21.515197 1.028988,-1.169304 -0.654811,-1.356393 0.514494,-1.917659 -0.561266,1.590254 -0.187089,0.701582 0.561267,1.07576 z"
       id="path5-1" /><rect
       style="opacity:0.5;fill:#041115;fill-opacity:1;stroke-width:0.264999;paint-order:stroke fill markers"
       id="rect5-7"
       width="2.4321527"
       height="1.8241144"
       x="28.390705"
       y="5.7295904" /><rect
       style="opacity:0.5;fill:#041115;fill-opacity:1;stroke-width:0.264999;paint-order:stroke fill markers"
       id="rect6-1"
       width="2.4087667"
       height="1.1693041"
       x="28.414091"
       y="8.4891481" /><rect
       style="opacity:0.5;fill:#041115;fill-opacity:1;stroke-width:0.272911;paint-order:stroke fill markers"
       id="rect7-1"
       width="2.4555387"
       height="0.67819637"
       x="28.343933"
       y="10.453579" /><path
       sodipodi:type="star"
       style="opacity:0.5;fill:#041115;fill-opacity:1;stroke-width:0.264999;paint-order:stroke fill markers"
       id="path7-5"
       inkscape:flatsided="false"
       sodipodi:sides="3"
       sodipodi:cx="13.938106"
       sodipodi:cy="4.2094951"
       sodipodi:r1="1.8492759"
       sodipodi:r2="0.92463797"
       sodipodi:arg1="0.5599398"
       sodipodi:arg2="1.6071374"
       inkscape:rounded="0"
       inkscape:randomized="0"
       d="m 15.504973,5.1917106 -1.600462,-0.058188 -1.600463,-0.058188 0.850624,-1.3569472 0.850623,-1.3569472 0.749839,1.4151353 z"
       inkscape:transform-center-x="0.095649446"
       inkscape:transform-center-y="0.019662561"
       transform="matrix(1.2251756,-0.04363599,0.05351272,0.9990475,12.312365,1.2477887)" /></g></svg>
