<?xml version="1.0" encoding="UTF-8" standalone="no"?>
<!-- Created with Inkscape (http://www.inkscape.org/) -->

<svg
   width="100"
   height="100"
   viewBox="0 0 26.458333 26.458333"
   version="1.1"
   id="svg1"
   inkscape:version="1.4.2 (f4327f4, 2025-05-13)"
   sodipodi:docname="DashIcon.svg"
   xml:space="preserve"
   inkscape:export-filename="PNG\Activated\DashIcon.png"
   inkscape:export-xdpi="96"
   inkscape:export-ydpi="96"
   xmlns:inkscape="http://www.inkscape.org/namespaces/inkscape"
   xmlns:sodipodi="http://sodipodi.sourceforge.net/DTD/sodipodi-0.dtd"
   xmlns="http://www.w3.org/2000/svg"
   xmlns:svg="http://www.w3.org/2000/svg"><sodipodi:namedview
     id="namedview1"
     pagecolor="#ffffff"
     bordercolor="#000000"
     borderopacity="0.25"
     inkscape:showpageshadow="2"
     inkscape:pageopacity="0.0"
     inkscape:pagecheckerboard="0"
     inkscape:deskcolor="#d1d1d1"
     inkscape:document-units="mm"
     inkscape:zoom="5.5090348"
     inkscape:cx="30.04156"
     inkscape:cy="51.64244"
     inkscape:window-width="1920"
     inkscape:window-height="1017"
     inkscape:window-x="-8"
     inkscape:window-y="-8"
     inkscape:window-maximized="1"
     inkscape:current-layer="layer1" /><defs
     id="defs1" /><g
     inkscape:label="Activated"
     inkscape:groupmode="layer"
     id="layer1"
     style="display:inline"><circle
       style="opacity:0.111635;fill:#403a9a;fill-opacity:1;stroke-width:0.279754;paint-order:stroke fill markers"
       id="path1"
       cx="13.25463"
       cy="13.23105"
       r="13.20747" /><rect
       style="opacity:1;fill:#000000;fill-opacity:1;stroke:none;stroke-width:0.435286"
       id="rect1"
       width="7.4712734"
       height="0.67920673"
       x="1.935739"
       y="11.852159" /><rect
       style="fill:#000000;fill-opacity:1;stroke:none;stroke-width:0.411539"
       id="rect1-4"
       width="5.8072171"
       height="0.7810877"
       x="3.8004847"
       y="13.611366" /><rect
       style="fill:#000000;fill-opacity:1;stroke:none;stroke-width:0.315395"
       id="rect1-1"
       width="3.7356365"
       height="0.71316707"
       x="1.7897255"
       y="15.524271" /><rect
       style="fill:#000000;fill-opacity:1;stroke:none;stroke-width:0.295226"
       id="rect1-6"
       width="2.9885092"
       height="0.7810877"
       x="4.5364861"
       y="9.5599136" /><ellipse
       style="opacity:1;fill:#000000;fill-opacity:1;stroke:none;stroke-width:0.577946"
       id="path2"
       cx="18.949867"
       cy="7.7429562"
       rx="1.5621754"
       ry="1.5282151" /><path
       style="opacity:1;fill:#000000;fill-opacity:1;stroke:none;stroke-width:0.600001"
       d="m 8.1504805,9.4070129 2.6828665,-2.4111839 4.211081,0.101881 3.124351,4.992169 2.818708,0.135841 0.916929,1.698017 -4.07524,-0.169801 -1.086731,-0.06792 -1.086731,-1.901779 -2.377223,2.682867 2.818708,5.09405 H 13.719975 L 11.750276,15.11235 11.274831,18.304622 H 6.5203844 L 7.3354323,16.946207 10.12018,16.912247 11.13899,11.954038 13.753936,9.1692903 11.546514,8.931568 9.4749336,10.663545 Z"
       id="path4" /></g><g
     inkscape:label="Deactivated"
     inkscape:groupmode="layer"
     id="g7"
     style="display:none"><circle
       style="opacity:0.111635;fill:#403a9a;fill-opacity:1;stroke-width:0.279754;paint-order:stroke fill markers"
       id="circle4"
       cx="13.25463"
       cy="13.23105"
       r="13.20747" /><rect
       style="opacity:0.5;fill:#000000;fill-opacity:1;stroke:none;stroke-width:0.435286"
       id="rect4"
       width="7.4712734"
       height="0.67920673"
       x="1.935739"
       y="11.852159" /><rect
       style="opacity:0.5;fill:#000000;fill-opacity:1;stroke:none;stroke-width:0.411539"
       id="rect5"
       width="5.8072171"
       height="0.7810877"
       x="3.8004847"
       y="13.611366" /><rect
       style="opacity:0.5;fill:#000000;fill-opacity:1;stroke:none;stroke-width:0.315395"
       id="rect6"
       width="3.7356365"
       height="0.71316707"
       x="1.7897255"
       y="15.524271" /><rect
       style="opacity:0.5;fill:#000000;fill-opacity:1;stroke:none;stroke-width:0.295226"
       id="rect7"
       width="2.9885092"
       height="0.7810877"
       x="4.5364861"
       y="9.5599136" /><ellipse
       style="opacity:0.5;fill:#000000;fill-opacity:1;stroke:none;stroke-width:0.577946"
       id="ellipse7"
       cx="18.949867"
       cy="7.7429562"
       rx="1.5621754"
       ry="1.5282151" /><path
       style="opacity:0.5;fill:#000000;fill-opacity:1;stroke:none;stroke-width:0.600001"
       d="m 8.1504805,9.4070129 2.6828665,-2.4111839 4.211081,0.101881 3.124351,4.992169 2.818708,0.135841 0.916929,1.698017 -4.07524,-0.169801 -1.086731,-0.06792 -1.086731,-1.901779 -2.377223,2.682867 2.818708,5.09405 H 13.719975 L 11.750276,15.11235 11.274831,18.304622 H 6.5203844 L 7.3354323,16.946207 10.12018,16.912247 11.13899,11.954038 13.753936,9.1692903 11.546514,8.931568 9.4749336,10.663545 Z"
       id="path7" /></g></svg>
