<?xml version="1.0" encoding="UTF-8" standalone="no"?>
<!-- Created with Inkscape (http://www.inkscape.org/) -->

<svg
   width="100"
   height="100"
   viewBox="0 0 26.458333 26.458333"
   version="1.1"
   id="svg1"
   inkscape:version="1.4.2 (f4327f4, 2025-05-13)"
   sodipodi:docname="DeadlyStrikeIcon.svg"
   xml:space="preserve"
   inkscape:export-filename="PNG\Activated\DeadlyStrikeIcon.png"
   inkscape:export-xdpi="96"
   inkscape:export-ydpi="96"
   xmlns:inkscape="http://www.inkscape.org/namespaces/inkscape"
   xmlns:sodipodi="http://sodipodi.sourceforge.net/DTD/sodipodi-0.dtd"
   xmlns="http://www.w3.org/2000/svg"
   xmlns:svg="http://www.w3.org/2000/svg"><sodipodi:namedview
     id="namedview1"
     pagecolor="#ffffff"
     bordercolor="#000000"
     borderopacity="0.25"
     inkscape:showpageshadow="2"
     inkscape:pageopacity="0.0"
     inkscape:pagecheckerboard="0"
     inkscape:deskcolor="#d1d1d1"
     inkscape:document-units="mm"
     inkscape:zoom="5.5090348"
     inkscape:cx="35.8502"
     inkscape:cy="51.2794"
     inkscape:window-width="1920"
     inkscape:window-height="1017"
     inkscape:window-x="-8"
     inkscape:window-y="-8"
     inkscape:window-maximized="1"
     inkscape:current-layer="g9" /><defs
     id="defs1" /><g
     inkscape:label="Activated"
     inkscape:groupmode="layer"
     id="layer1"
     style="display:inline"><ellipse
       style="opacity:0.761821;fill:#000000;stroke-width:0.27899;paint-order:stroke fill markers"
       id="path1"
       cx="13.265043"
       cy="13.10751"
       rx="13.20747"
       ry="13.135429" /><path
       style="display:inline;opacity:0.814465;fill:#000000;fill-opacity:1;stroke-width:0.600001"
       d="m 8.9810801,4.4184993 -2.017141,0.864489 -1.2967335,1.6809508 c 0,0 -0.7204075,1.440815 -0.7684347,1.6329236 -0.048027,0.1921087 -0.5282988,2.8336033 -0.5282988,2.8336033 l -0.096054,2.401358 0.7204075,2.209249 1.1046248,1.152652 1.6809508,0.768435 1.7770051,0.240136 -0.1921086,1.632924 v 0.960543 l 0.8164613,0.912516 1.008571,0.240136 2.209249,0.432244 h 1.87306 l 1.632923,-0.144081 2.20925,-0.624353 0.912516,-0.912516 0.192109,-1.152652 -0.09605,-0.960544 -0.336191,-0.768434 -0.09605,-1.680951 0.480272,-0.624353 0.864489,-0.816462 -0.04803,-0.624353 -0.336191,-0.768435 -0.67238,-0.768435 -0.384217,-0.816461 0.04803,-0.864489 0.528299,-0.816462 c 0,0 0.33619,-0.768435 0.33619,-1.1046251 0,-0.3361902 -0.384217,-1.440815 -0.384217,-1.440815 L 19.306921,6.4356403 18.63454,5.0908796 18.154269,4.8027166 17.62597,5.0428524 17.241753,5.5711513 15.560802,4.4665264 13.879851,3.9382276 l -1.536869,0.096054 -0.672381,-0.096054 -1.248706,0.096054 z"
       id="path2" /><path
       style="display:inline;opacity:0.814465;fill:#ffffff;fill-opacity:1;stroke-width:0.600001"
       d="m 12.967335,10.085705 -1.104625,0.09605 -1.00857,1.584897 -0.240136,1.152652 0.432244,0.816461 c 0,0 1.008571,0.528299 1.344761,0.528299 0.33619,0 1.104625,0 1.104625,0 l 0.816461,-0.624353 0.09605,-0.912516 -0.04803,-1.200679 -0.04803,-0.864489 -0.480271,-0.480272 z"
       id="path3" /><path
       style="display:inline;opacity:0.814465;fill:#ffffff;fill-opacity:1;stroke-width:0.600001"
       d="m 17.96216,9.0771344 -1.200679,0.4802716 -0.528299,0.912516 v 1.392788 l 0.816462,1.248706 0.912516,0.192109 0.576326,-0.528299 -0.480272,-0.816462 -0.288163,-0.576326 0.04803,-0.624353 0.288163,-0.67238 0.384217,-1.1046249 z"
       id="path4" /><path
       style="display:inline;opacity:0.814465;fill:#ff0000;fill-opacity:1;stroke-width:0.600001"
       d="m 10.421895,17.28978 1.344761,-1.200679 0.480271,2.017141 1.344761,0.192108 1.152652,0.04803 h 1.248706 l 0.912516,-0.09605 1.152652,-0.480272 0.672381,-0.480271 -1.248707,0.720407 -2.401358,0.33619 -2.689521,-0.33619 -0.480272,-1.969114 z"
       id="path5" /></g><g
     inkscape:label="Deactivated"
     inkscape:groupmode="layer"
     id="g9"
     style="display:none"><ellipse
       style="opacity:0.11;fill:#000000;stroke-width:0.27899;paint-order:stroke fill markers"
       id="ellipse5"
       cx="13.265043"
       cy="13.10751"
       rx="13.20747"
       ry="13.135429" /><path
       style="display:inline;opacity:0.5;fill:#000000;fill-opacity:1;stroke-width:0.600001"
       d="m 8.9810801,4.4184993 -2.017141,0.864489 -1.2967335,1.6809508 c 0,0 -0.7204075,1.440815 -0.7684347,1.6329236 -0.048027,0.1921087 -0.5282988,2.8336033 -0.5282988,2.8336033 l -0.096054,2.401358 0.7204075,2.209249 1.1046248,1.152652 1.6809508,0.768435 1.7770051,0.240136 -0.1921086,1.632924 v 0.960543 l 0.8164613,0.912516 1.008571,0.240136 2.209249,0.432244 h 1.87306 l 1.632923,-0.144081 2.20925,-0.624353 0.912516,-0.912516 0.192109,-1.152652 -0.09605,-0.960544 -0.336191,-0.768434 -0.09605,-1.680951 0.480272,-0.624353 0.864489,-0.816462 -0.04803,-0.624353 -0.336191,-0.768435 -0.67238,-0.768435 -0.384217,-0.816461 0.04803,-0.864489 0.528299,-0.816462 c 0,0 0.33619,-0.768435 0.33619,-1.1046251 0,-0.3361902 -0.384217,-1.440815 -0.384217,-1.440815 L 19.306921,6.4356403 18.63454,5.0908796 18.154269,4.8027166 17.62597,5.0428524 17.241753,5.5711513 15.560802,4.4665264 13.879851,3.9382276 l -1.536869,0.096054 -0.672381,-0.096054 -1.248706,0.096054 z"
       id="path6" /><path
       style="display:inline;opacity:0.5;fill:#ffffff;fill-opacity:1;stroke-width:0.600001"
       d="m 12.967335,10.085705 -1.104625,0.09605 -1.00857,1.584897 -0.240136,1.152652 0.432244,0.816461 c 0,0 1.008571,0.528299 1.344761,0.528299 0.33619,0 1.104625,0 1.104625,0 l 0.816461,-0.624353 0.09605,-0.912516 -0.04803,-1.200679 -0.04803,-0.864489 -0.480271,-0.480272 z"
       id="path7" /><path
       style="display:inline;opacity:0.5;fill:#ffffff;fill-opacity:1;stroke-width:0.600001"
       d="m 17.96216,9.0771344 -1.200679,0.4802716 -0.528299,0.912516 v 1.392788 l 0.816462,1.248706 0.912516,0.192109 0.576326,-0.528299 -0.480272,-0.816462 -0.288163,-0.576326 0.04803,-0.624353 0.288163,-0.67238 0.384217,-1.1046249 z"
       id="path8" /><path
       style="opacity:0.11;fill:#ffffff;fill-opacity:1;stroke-width:0.600001"
       d="m 12.294955,19.883247 1.296733,-1.584897 3.794146,-0.240136 0.816462,1.632924 -0.912516,-1.200679 -3.602038,0.144081 z"
       id="path9" /></g></svg>
